HIERARCHY
ROOT Root
{
  OFFSET 0.0 0.0 0.0
  CHANNELS 6 Xposition Yposition Zposition Zrotation Yrotation Xrotation
  JOINT Hips
  {
    OFFSET 0.0 100.0 0.0
    CHANNELS 6 Xposition Yposition Zposition Zrotation Yrotation Xrotation
    JOINT Spine1
    {
      OFFSET 5.003913 -0.037094 -0.013727
      CHANNELS 3 Zrotation Yrotation Xrotation
      JOINT Spine2
      {
        OFFSET 7.125363 -1e-06 0.0
        CHANNELS 3 Zrotation Yrotation Xrotation
        JOINT Chest
        {
          OFFSET 7.594027 1e-06 0.0
          CHANNELS 3 Zrotation Yrotation Xrotation
          JOINT Neck1
          {
            OFFSET 26.313086 -0.460272 -0.181672
            CHANNELS 3 Zrotation Yrotation Xrotation
            JOINT Neck2
            {
              OFFSET 8.045911 0.0 0.0
              CHANNELS 3 Zrotation Yrotation Xrotation
              JOINT Head
              {
                OFFSET 6.432774 0.0 0.0
                CHANNELS 3 Zrotation Yrotation Xrotation
                JOINT HeadEnd
                {
                  OFFSET 16.169773 0.06451 0.00362
                  CHANNELS 3 Zrotation Yrotation Xrotation
                }
                JOINT Jaw
                {
                  OFFSET 0.108741 3.12938 0.002639
                  CHANNELS 3 Zrotation Yrotation Xrotation
                }
                JOINT LeftEye
                {
                  OFFSET 4.45173 8.166359 3.206392
                  CHANNELS 3 Zrotation Yrotation Xrotation
                }
                JOINT RightEye
                {
                  OFFSET 4.436895 8.135758 -3.222429
                  CHANNELS 3 Zrotation Yrotation Xrotation
                }
              }
            }
          }
          JOINT LeftShoulder
          {
            OFFSET 23.218927 5.195579 1.621656
            CHANNELS 3 Zrotation Yrotation Xrotation
            JOINT LeftArm
            {
              OFFSET 15.902118 2e-06 -2e-06
              CHANNELS 3 Zrotation Yrotation Xrotation
              JOINT LeftForeArm
              {
                OFFSET 28.739307 0.0 -1e-06
                CHANNELS 3 Zrotation Yrotation Xrotation
                JOINT LeftHand
                {
                  OFFSET 27.093981 -4e-06 0.0
                  CHANNELS 3 Zrotation Yrotation Xrotation
                  JOINT LeftHandThumb1
                  {
                    OFFSET 2.276781 3.380274 0.83384
                    CHANNELS 3 Zrotation Yrotation Xrotation
                    JOINT LeftHandThumb2
                    {
                      OFFSET 4.705309 -1e-06 -1e-06
                      CHANNELS 3 Zrotation Yrotation Xrotation
                      JOINT LeftHandThumb3
                      {
                        OFFSET 2.798515 0.0 3e-06
                        CHANNELS 3 Zrotation Yrotation Xrotation
                        JOINT LeftHandThumbEnd
                        {
                          OFFSET 3.180793 4e-06 -4e-06
                          CHANNELS 3 Zrotation Yrotation Xrotation
                        }
                      }
                    }
                  }
                  JOINT LeftHandIndex1
                  {
                    OFFSET 3.247786 2.352677 0.137192
                    CHANNELS 3 Zrotation Yrotation Xrotation
                    JOINT LeftHandIndex2
                    {
                      OFFSET 6.367095 1e-06 0.0
                      CHANNELS 3 Zrotation Yrotation Xrotation
                      JOINT LeftHandIndex3
                      {
                        OFFSET 3.662364 0.0 0.0
                        CHANNELS 3 Zrotation Yrotation Xrotation
                        JOINT LeftHandIndex4
                        {
                          OFFSET 2.329242 4e-06 -4e-06
                          CHANNELS 3 Zrotation Yrotation Xrotation
                          JOINT LeftHandIndexEnd
                          {
                            OFFSET 2.767823 1e-06 0.0
                            CHANNELS 3 Zrotation Yrotation Xrotation
                          }
                        }
                      }
                    }
                  }
                  JOINT LeftHandMiddle1
                  {
                    OFFSET 3.163612 0.945023 -0.406112
                    CHANNELS 3 Zrotation Yrotation Xrotation
                    JOINT LeftHandMiddle2
                    {
                      OFFSET 6.276789 3e-06 0.0
                      CHANNELS 3 Zrotation Yrotation Xrotation
                      JOINT LeftHandMiddle3
                      {
                        OFFSET 4.35652 -1e-06 4e-06
                        CHANNELS 3 Zrotation Yrotation Xrotation
                        JOINT LeftHandMiddle4
                        {
                          OFFSET 2.996877 0.0 8e-06
                          CHANNELS 3 Zrotation Yrotation Xrotation
                          JOINT LeftHandMiddleEnd
                          {
                            OFFSET 2.323256 3e-06 -4e-06
                            CHANNELS 3 Zrotation Yrotation Xrotation
                          }
                        }
                      }
                    }
                  }
                  JOINT LeftHandRing1
                  {
                    OFFSET 2.882606 -0.309162 0.107445
                    CHANNELS 3 Zrotation Yrotation Xrotation
                    JOINT LeftHandRing2
                    {
                      OFFSET 6.033198 0.0 4e-06
                      CHANNELS 3 Zrotation Yrotation Xrotation
                      JOINT LeftHandRing3
                      {
                        OFFSET 4.350578 3e-06 0.0
                        CHANNELS 3 Zrotation Yrotation Xrotation
                        JOINT LeftHandRing4
                        {
                          OFFSET 2.651321 2e-06 -7e-06
                          CHANNELS 3 Zrotation Yrotation Xrotation
                          JOINT LeftHandRingEnd
                          {
                            OFFSET 1.937663 1e-06 -4e-06
                            CHANNELS 3 Zrotation Yrotation Xrotation
                          }
                        }
                      }
                    }
                  }
                  JOINT LeftHandPinky1
                  {
                    OFFSET 2.865315 -1.525436 0.575687
                    CHANNELS 3 Zrotation Yrotation Xrotation
                    JOINT LeftHandPinky2
                    {
                      OFFSET 5.54936 1e-06 -8e-06
                      CHANNELS 3 Zrotation Yrotation Xrotation
                      JOINT LeftHandPinky3
                      {
                        OFFSET 3.070974 0.0 -4e-06
                        CHANNELS 3 Zrotation Yrotation Xrotation
                        JOINT LeftHandPinky4
                        {
                          OFFSET 1.549672 1e-06 0.0
                          CHANNELS 3 Zrotation Yrotation Xrotation
                          JOINT LeftHandPinkyEnd
                          {
                            OFFSET 1.952123 0.0 0.0
                            CHANNELS 3 Zrotation Yrotation Xrotation
                          }
                        }
                      }
                    }
                  }
                }
              }
            }
          }
          JOINT RightShoulder
          {
            OFFSET 23.161716 5.296122 -1.380114
            CHANNELS 3 Zrotation Yrotation Xrotation
            JOINT RightArm
            {
              OFFSET -16.027195 -2e-06 1.1e-05
              CHANNELS 3 Zrotation Yrotation Xrotation
              JOINT RightForeArm
              {
                OFFSET -28.736639 4e-06 2e-06
                CHANNELS 3 Zrotation Yrotation Xrotation
                JOINT RightHand
                {
                  OFFSET -27.133619 6e-06 0.0
                  CHANNELS 3 Zrotation Yrotation Xrotation
                  JOINT RightHandThumb1
                  {
                    OFFSET -2.274328 -3.351035 -0.83067
                    CHANNELS 3 Zrotation Yrotation Xrotation
                    JOINT RightHandThumb2
                    {
                      OFFSET -4.703594 -3e-06 2e-06
                      CHANNELS 3 Zrotation Yrotation Xrotation
                      JOINT RightHandThumb3
                      {
                        OFFSET -2.794935 -4e-06 -3e-06
                        CHANNELS 3 Zrotation Yrotation Xrotation
                        JOINT RightHandThumbEnd
                        {
                          OFFSET -3.183852 4e-06 1e-06
                          CHANNELS 3 Zrotation Yrotation Xrotation
                        }
                      }
                    }
                  }
                  JOINT RightHandIndex1
                  {
                    OFFSET -3.253496 -2.33755 -0.127667
                    CHANNELS 3 Zrotation Yrotation Xrotation
                    JOINT RightHandIndex2
                    {
                      OFFSET -6.344434 0.0 0.0
                      CHANNELS 3 Zrotation Yrotation Xrotation
                      JOINT RightHandIndex3
                      {
                        OFFSET -3.654871 0.0 -8e-06
                        CHANNELS 3 Zrotation Yrotation Xrotation
                        JOINT RightHandIndex4
                        {
                          OFFSET -2.327586 -1e-06 0.0
                          CHANNELS 3 Zrotation Yrotation Xrotation
                          JOINT RightHandIndexEnd
                          {
                            OFFSET -2.770001 3e-06 8e-06
                            CHANNELS 3 Zrotation Yrotation Xrotation
                          }
                        }
                      }
                    }
                  }
                  JOINT RightHandMiddle1
                  {
                    OFFSET -3.168223 -0.944764 0.411762
                    CHANNELS 3 Zrotation Yrotation Xrotation
                    JOINT RightHandMiddle2
                    {
                      OFFSET -6.266691 -1e-06 -4e-06
                      CHANNELS 3 Zrotation Yrotation Xrotation
                      JOINT RightHandMiddle3
                      {
                        OFFSET -4.348901 0.0 0.0
                        CHANNELS 3 Zrotation Yrotation Xrotation
                        JOINT RightHandMiddle4
                        {
                          OFFSET -3.00024 2e-06 -4e-06
                          CHANNELS 3 Zrotation Yrotation Xrotation
                          JOINT RightHandMiddleEnd
                          {
                            OFFSET -2.321477 -4e-06 -4e-06
                            CHANNELS 3 Zrotation Yrotation Xrotation
                          }
                        }
                      }
                    }
                  }
                  JOINT RightHandRing1
                  {
                    OFFSET -2.885654 0.293261 -0.119232
                    CHANNELS 3 Zrotation Yrotation Xrotation
                    JOINT RightHandRing2
                    {
                      OFFSET -6.032835 -1e-06 -4e-06
                      CHANNELS 3 Zrotation Yrotation Xrotation
                      JOINT RightHandRing3
                      {
                        OFFSET -4.33881 0.0 -4e-06
                        CHANNELS 3 Zrotation Yrotation Xrotation
                        JOINT RightHandRing4
                        {
                          OFFSET -2.654903 -4e-06 -4e-06
                          CHANNELS 3 Zrotation Yrotation Xrotation
                          JOINT RightHandRingEnd
                          {
                            OFFSET -1.935122 0.0 4e-06
                            CHANNELS 3 Zrotation Yrotation Xrotation
                          }
                        }
                      }
                    }
                  }
                  JOINT RightHandPinky1
                  {
                    OFFSET -2.866241 1.503904 -0.60527
                    CHANNELS 3 Zrotation Yrotation Xrotation
                    JOINT RightHandPinky2
                    {
                      OFFSET -5.553177 -2e-06 0.0
                      CHANNELS 3 Zrotation Yrotation Xrotation
                      JOINT RightHandPinky3
                      {
                        OFFSET -3.062664 -1e-06 -4e-06
                        CHANNELS 3 Zrotation Yrotation Xrotation
                        JOINT RightHandPinky4
                        {
                          OFFSET -1.546529 2e-06 4e-06
                          CHANNELS 3 Zrotation Yrotation Xrotation
                          JOINT RightHandPinkyEnd
                          {
                            OFFSET -1.952341 0.0 -4e-06
                            CHANNELS 3 Zrotation Yrotation Xrotation
                          }
                        }
                      }
                    }
                  }
                }
              }
            }
          }
        }
      }
    }
    JOINT LeftLeg
    {
      OFFSET -8.443107 2.567604 10.043214
      CHANNELS 3 Zrotation Yrotation Xrotation
      JOINT LeftShin
      {
        OFFSET 43.229198 1e-06 -1e-06
        CHANNELS 3 Zrotation Yrotation Xrotation
        JOINT LeftFoot
        {
          OFFSET 42.298611 1e-06 1e-06
          CHANNELS 3 Zrotation Yrotation Xrotation
          JOINT LeftToeBase
          {
            OFFSET 14.165858 1e-06 0.0
            CHANNELS 3 Zrotation Yrotation Xrotation
            JOINT LeftToeEnd
            {
              OFFSET 6.7141 -0.234461 0.0
              CHANNELS 3 Zrotation Yrotation Xrotation
            }
          }
        }
      }
    }
    JOINT RightLeg
    {
      OFFSET -8.303923 2.592729 -10.047278
      CHANNELS 3 Zrotation Yrotation Xrotation
      JOINT RightShin
      {
        OFFSET -43.369682 0.0 1e-06
        CHANNELS 3 Zrotation Yrotation Xrotation
        JOINT RightFoot
        {
          OFFSET -42.260784 4e-06 2e-06
          CHANNELS 3 Zrotation Yrotation Xrotation
          JOINT RightToeBase
          {
            OFFSET -14.222245 -2e-06 -1e-06
            CHANNELS 3 Zrotation Yrotation Xrotation
            JOINT RightToeEnd
            {
              OFFSET -6.660062 0.232574 -2e-06
              CHANNELS 3 Zrotation Yrotation Xrotation
            }
          }
        }
      }
    }
  }
}
MOTION
Frames: 4
Frame Time: 0.03333333333333333
0.0 0.0 0.0 0.0 -0.0 0.0 0.978212 100.258698 -0.339935 90.661079 -2.559114 90.60524 -5.133359 -1.346216 -0.08015 -12.918228 -0.850567 0.163737 17.081329 -1.05211 -2.032489 9.900638 -0.647106 2.211214 -2.533868 -0.506384 -3.945012 -35.244583 -0.194627 -7.95681 7e-06 -0.0 -0.0 0.046191 0.086165 0.127935 0.289263 0.046985 0.13287 0.309305 0.118789 0.127274 -140.473892 -67.946747 162.20752 35.951813 -52.595566 6.115742 19.99119 -0.279535 -0.070414 5.096196 1.851399 -32.634491 17.636621 -26.322735 52.411205 -19.466665 -14.395596 29.410395 -0.0 -8.774821 -2e-06 15.427847 -17.587532 6.236729 -0.609777 -1.795654 -3.889328 -4.80709 -11.046811 -2.93785 3e-06 -20.976021 -1e-06 -5.019972 -25.03356 -4.031881 6e-06 0.0 0.0 -10.634533 -5.686971 -3.565588 10.573272 -17.922953 -3.113902 2e-06 -13.821211 1e-06 -0.501778 -31.181507 -4.027017 -11.235688 -59.267185 7.259407 -13.982714 -7.150199 -2.875042 13.772727 -8.401492 -3.218243 0.347732 -34.211555 0.771654 -0.963029 -17.733372 2.62102 -1e-06 -0.0 1e-06 -17.346418 -20.095221 -4.201782 21.757555 -1.638374 3.866426 -0.0 -6.338825 1e-06 -1.69759 -22.591747 -6.194008 1e-06 -4e-06 -1e-06 21.132004 -65.698822 -179.545364 21.736229 -55.373608 4.124526 25.251513 0.088983 0.295841 -3.656201 6.329119 -26.590952 22.182119 -20.375895 49.933319 -16.701815 -16.743528 28.47653 -3e-06 -12.690601 -1e-06 15.897898 -18.050589 3.03166 -0.105919 -1.513856 -4.275883 -5.039041 -5.612871 -2.953556 4e-06 -11.020524 -2e-06 -6.111297 -15.895334 -3.840471 -0.0 0.0 0.0 -10.283371 -5.680287 -4.341839 11.028296 -11.302405 -2.372633 -1.384269 -14.238582 -6.320121 -0.625435 -26.924191 -3.827604 -3.991671 -50.130676 -3.600469 -13.708524 -7.363475 -3.720941 18.141148 -14.052739 -3.242674 8e-06 -18.78727 -2e-06 -0.42971 -8.456045 2.555504 -1e-06 1e-06 -0.0 -15.923536 -20.094482 -5.473586 30.41921 -7.190827 1.735927 4e-06 -8.162925 -1e-06 -1.861902 -22.861469 -6.167941 0.0 -3e-06 -1e-06 -179.493301 1.643396 -4.769736 7.034435 -0.027172 -0.083838 -79.40815 -3.309974 -2.822872 -4.545321 1.515411 2.116728 -1.0 0.0 0.0 1.728601 -2.049724 -0.758386 6.994898 -0.013212 0.019521 -80.224983 -5.893858 -6.605845 -4.192607 0.651783 1.664138 -1.000002 0.0 -0.0 
0.0 0.0 0.0 0.0 -0.0 0.0 0.908016 100.286865 -0.402406 90.632126 -2.723332 90.491531 -5.107027 -1.282875 -0.088919 -12.918427 -0.829639 0.17411 17.036453 -0.990737 -2.054223 9.890586 -0.635088 2.215626 -2.536331 -0.513968 -3.920398 -35.201668 -0.22851 -7.907087 6e-06 0.0 -0.0 0.04059 0.085073 0.125256 0.298917 0.051584 0.128343 0.317131 0.1119 0.125629 -140.377914 -67.921432 162.065887 36.323559 -52.717728 6.143947 19.89201 -0.295911 -0.074069 5.031276 1.808951 -31.918407 17.636625 -26.322729 52.411186 -19.466663 -14.395596 29.410389 -0.0 -8.774821 -2e-06 15.431977 -17.542782 6.210327 -0.609777 -1.795653 -3.889328 -4.807088 -11.046811 -2.93785 3e-06 -20.976019 -1e-06 -5.01997 -25.03356 -4.031881 6e-06 -0.0 -0.0 -10.634533 -5.686971 -3.565587 10.573271 -17.922951 -3.113901 3e-06 -13.821209 2e-06 -0.501779 -31.181505 -4.027016 -11.257458 -59.272991 7.273089 -13.982713 -7.150199 -2.875041 13.772727 -8.401491 -3.218242 0.347732 -34.211552 0.771654 -0.963028 -17.73337 2.621019 -0.0 0.0 1e-06 -17.346418 -20.095219 -4.201779 21.757557 -1.638375 3.866427 0.0 -6.338824 0.0 -1.69759 -22.591742 -6.194006 -0.0 -5e-06 -3e-06 21.077084 -65.795837 -179.497238 21.608877 -55.326416 4.576171 25.139099 0.086499 0.301527 -3.631871 6.257851 -26.705902 22.182114 -20.375893 49.933327 -16.701818 -16.74353 28.47654 -2e-06 -12.690603 0.0 15.919433 -18.03005 2.99272 -0.105919 -1.513856 -4.275883 -5.039041 -5.612873 -2.953557 3e-06 -11.020527 -2e-06 -6.111298 -15.895339 -3.840473 0.0 -1e-06 0.0 -10.283371 -5.68029 -4.34184 11.028296 -11.302407 -2.372634 -1.384269 -14.238586 -6.320123 -0.625438 -26.924198 -3.827604 -4.034877 -50.08342 -3.626042 -13.708526 -7.363478 -3.720939 18.14115 -14.052739 -3.242675 6e-06 -18.787271 -3e-06 -0.429711 -8.456047 2.555503 -0.0 0.0 0.0 -15.923538 -20.09449 -5.473586 30.419218 -7.190826 1.735925 2e-06 -8.162927 -1e-06 -1.861901 -22.861473 -6.167946 -1e-06 -1e-06 0.0 -179.622223 1.560784 -4.905921 6.885641 -0.016833 -0.073997 -79.283859 -3.231363 -2.898934 -4.459305 1.487965 2.112231 -0.999998 -0.0 0.0 1.600774 -1.983764 -0.731046 6.791379 -0.009427 0.00618 -80.049911 -5.797198 -6.579586 -4.138542 0.637292 1.656398 -1.000001 0.0 -0.0 
0.0 0.0 0.0 0.0 -0.0 0.0 0.852658 100.30751 -0.460217 90.611969 -2.899605 90.368057 -5.080307 -1.213138 -0.092692 -12.920317 -0.813663 0.196656 16.992184 -0.930198 -2.054898 9.957994 -0.588546 2.233541 -2.54514 -0.522785 -3.911661 -35.204109 -0.275943 -7.827378 5e-06 0.0 0.0 0.039469 0.083757 0.12204 0.303244 0.05348 0.124002 0.321628 0.107115 0.12224 -140.477402 -67.859833 162.106277 36.517227 -52.69833 6.270727 19.832685 -0.310182 -0.076386 4.937882 1.814444 -31.245762 17.636627 -26.322733 52.411201 -19.46666 -14.3956 29.410389 -1e-06 -8.774822 -2e-06 15.430169 -17.514084 6.184376 -0.609776 -1.795654 -3.889327 -4.807089 -11.046811 -2.93785 3e-06 -20.976021 0.0 -5.019972 -25.03356 -4.03188 6e-06 0.0 -0.0 -10.634535 -5.686971 -3.565587 10.573272 -17.922951 -3.113899 2e-06 -13.821209 1e-06 -0.501779 -31.181505 -4.027015 -11.250772 -59.269085 7.249169 -13.982715 -7.150199 -2.875041 13.77273 -8.401493 -3.218241 0.34773 -34.211555 0.771656 -0.96303 -17.733372 2.621019 1e-06 -1e-06 1e-06 -17.346422 -20.095219 -4.201779 21.757561 -1.638376 3.866427 0.0 -6.338825 1e-06 -1.697592 -22.591749 -6.194005 -0.0 -3e-06 -2e-06 21.044294 -65.904625 -179.502899 21.666126 -55.253521 4.922035 25.133577 0.119902 0.308142 -3.67607 6.250178 -26.755249 22.182116 -20.375891 49.933304 -16.701813 -16.74353 28.476528 -3e-06 -12.6906 -0.0 15.945721 -17.996405 2.955087 -0.10592 -1.513855 -4.275881 -5.03904 -5.612869 -2.953556 4e-06 -11.020521 -2e-06 -6.111297 -15.895332 -3.84047 0.0 1e-06 -1e-06 -10.283369 -5.680287 -4.341837 11.028296 -11.302404 -2.372633 -1.384269 -14.238578 -6.320119 -0.625437 -26.924187 -3.827599 -4.051244 -50.038834 -3.661255 -13.708526 -7.363475 -3.720938 18.14115 -14.052737 -3.242674 5e-06 -18.787266 -1e-06 -0.429711 -8.456044 2.555504 -1e-06 0.0 -0.0 -15.923538 -20.094479 -5.473584 30.419218 -7.190828 1.735925 4e-06 -8.162925 -0.0 -1.861902 -22.861473 -6.16794 0.0 -4e-06 -1e-06 -179.819778 1.48375 -5.10412 6.844337 -0.007183 -0.068815 -79.220093 -3.129443 -2.954969 -4.383785 1.467916 2.109678 -0.999999 0.0 0.0 1.388339 -1.939244 -0.73421 6.723472 -0.007306 -0.010726 -79.954384 -5.645781 -6.567242 -4.084946 0.622898 1.651387 -1.000002 0.0 -0.0 
0.0 0.0 0.0 0.0 -0.0 0.0 0.804425 100.322655 -0.499771 90.614365 -3.041036 90.235657 -5.050078 -1.155064 -0.091662 -12.915676 -0.806136 0.213495 16.956278 -0.884121 -2.023642 10.111597 -0.516571 2.252316 -2.558099 -0.533288 -3.891169 -35.197437 -0.311887 -7.733909 5e-06 0.0 -0.0 0.042995 0.079844 0.117228 0.297836 0.051388 0.119252 0.317219 0.101176 0.116109 -140.644333 -67.785042 162.241806 36.599033 -52.560753 6.450662 19.798185 -0.333192 -0.077033 4.869421 1.863531 -30.615381 17.636637 -26.322725 52.411182 -19.466663 -14.395596 29.410385 -1e-06 -8.774822 -2e-06 15.439093 -17.49884 6.177403 -0.609775 -1.795654 -3.889327 -4.807089 -11.046809 -2.93785 5e-06 -20.976015 -1e-06 -5.01997 -25.033558 -4.03188 6e-06 0.0 0.0 -10.634537 -5.686971 -3.565588 10.573277 -17.922951 -3.113901 3e-06 -13.821211 0.0 -0.501775 -31.181511 -4.027018 -11.223392 -59.286282 7.226994 -13.982715 -7.150198 -2.875042 13.772731 -8.401495 -3.218241 0.347736 -34.211555 0.771653 -0.963026 -17.73337 2.62102 -0.0 -1e-06 -0.0 -17.346416 -20.095217 -4.201783 21.757559 -1.638375 3.866429 1e-06 -6.338824 0.0 -1.697588 -22.591742 -6.194007 -0.0 -2e-06 -2e-06 21.033236 -66.000465 -179.55307 21.809196 -55.175159 5.224496 25.249575 0.186453 0.321634 -3.774896 6.281369 -26.70429 22.182117 -20.375898 49.933327 -16.701815 -16.743528 28.476536 -2e-06 -12.690601 -1e-06 15.952225 -17.944721 2.940914 -0.10592 -1.513856 -4.275883 -5.039041 -5.612872 -2.953557 4e-06 -11.020525 -1e-06 -6.111298 -15.895334 -3.840471 -0.0 -1e-06 1e-06 -10.283369 -5.680288 -4.341839 11.028294 -11.302406 -2.372633 -1.384269 -14.238583 -6.320122 -0.625437 -26.924187 -3.827601 -4.04369 -49.985641 -3.693022 -13.708526 -7.363475 -3.72094 18.141148 -14.052739 -3.242674 5e-06 -18.78727 -1e-06 -0.429711 -8.456041 2.555504 -0.0 -1e-06 -0.0 -15.923536 -20.094482 -5.473586 30.419214 -7.190826 1.735927 3e-06 -8.162927 -1e-06 -1.861904 -22.861473 -6.167942 2e-06 -3e-06 -1e-06 -179.95314 1.440641 -5.327218 6.778057 -0.002551 -0.072018 -79.154465 -3.014125 -2.98877 -4.313902 1.45529 2.112795 -0.999998 0.0 -0.0 1.182525 -1.920606 -0.748209 6.726974 -0.007539 -0.024636 -79.913094 -5.508824 -6.535145 -4.024093 0.607497 1.648707 -1.000001 0.0 -0.0 
